<?xml version="1.0" encoding="UTF-8" standalone="no"?>
<svg
   fill="none"
   height="2500"
   viewBox="0 0 282.72 64"
   width="2500"
   version="1.1"
   id="svg4"
   sodipodi:docname="vercel.svg"
   inkscape:version="1.1 (c68e22c387, 2021-05-23)"
   xmlns:inkscape="http://www.inkscape.org/namespaces/inkscape"
   xmlns:sodipodi="http://sodipodi.sourceforge.net/DTD/sodipodi-0.dtd"
   xmlns="http://www.w3.org/2000/svg"
   xmlns:svg="http://www.w3.org/2000/svg">
  <defs
     id="defs8" />
  <sodipodi:namedview
     id="namedview6"
     pagecolor="#505050"
     bordercolor="#eeeeee"
     borderopacity="1"
     inkscape:pageshadow="0"
     inkscape:pageopacity="0"
     inkscape:pagecheckerboard="0"
     showgrid="false"
     inkscape:zoom="0.3368"
     inkscape:cx="1248.5154"
     inkscape:cy="1248.5154"
     inkscape:window-width="1920"
     inkscape:window-height="1027"
     inkscape:window-x="1912"
     inkscape:window-y="-8"
     inkscape:window-maximized="1"
     inkscape:current-layer="svg4" />
  <path
     d="M141.04 16c-11.04 0-19 7.2-19 18s8.96 18 20 18c6.67 0 12.55-2.64 16.19-7.09l-7.65-4.42c-2.02 2.21-5.09 3.5-8.54 3.5-4.79 0-8.86-2.5-10.37-6.5h28.02c.22-1.12.35-2.28.35-3.5 0-10.79-7.96-17.99-19-17.99zm-9.46 14.5c1.25-3.99 4.67-6.5 9.45-6.5 4.79 0 8.21 2.51 9.45 6.5zM248.72 16c-11.04 0-19 7.2-19 18s8.96 18 20 18c6.67 0 12.55-2.64 16.19-7.09l-7.65-4.42c-2.02 2.21-5.09 3.5-8.54 3.5-4.79 0-8.86-2.5-10.37-6.5h28.02c.22-1.12.35-2.28.35-3.5 0-10.79-7.96-17.99-19-17.99zm-9.45 14.5c1.25-3.99 4.67-6.5 9.45-6.5 4.79 0 8.21 2.51 9.45 6.5zM200.24 34c0 6 3.92 10 10 10 4.12 0 7.21-1.87 8.8-4.92l7.68 4.43c-3.18 5.3-9.14 8.49-16.48 8.49-11.05 0-19-7.2-19-18s7.96-18 19-18c7.34 0 13.29 3.19 16.48 8.49l-7.68 4.43c-1.59-3.05-4.68-4.92-8.8-4.92-6.07 0-10 4-10 10zm82.48-29v46h-9V5zM36.95 0L73.9 64H0zm92.38 5l-27.71 48L73.91 5H84.3l17.32 30 17.32-30zm58.91 12v9.69c-1-.29-2.06-.49-3.2-.49-5.81 0-10 4-10 10V51h-9V17h9v9.2c0-5.08 5.91-9.2 13.2-9.2z"
     fill="#000"
     id="path2"
     style="fill:#ffffff;fill-opacity:1" />
</svg>
