<?xml version="1.0" encoding="UTF-8" standalone="no"?>
<svg
   viewBox="0 0 333333 333333"
   shape-rendering="geometricPrecision"
   text-rendering="geometricPrecision"
   image-rendering="optimizeQuality"
   fill-rule="evenodd"
   clip-rule="evenodd"
   version="1.1"
   id="svg4"
   sodipodi:docname="linkedin.svg"
   inkscape:version="1.1 (c68e22c387, 2021-05-23)"
   xmlns:inkscape="http://www.inkscape.org/namespaces/inkscape"
   xmlns:sodipodi="http://sodipodi.sourceforge.net/DTD/sodipodi-0.dtd"
   xmlns="http://www.w3.org/2000/svg"
   xmlns:svg="http://www.w3.org/2000/svg">
  <defs
     id="defs8" />
  <sodipodi:namedview
     id="namedview6"
     pagecolor="#505050"
     bordercolor="#eeeeee"
     borderopacity="1"
     inkscape:pageshadow="0"
     inkscape:pageopacity="0"
     inkscape:pagecheckerboard="0"
     showgrid="false"
     inkscape:zoom="0.01"
     inkscape:cx="173250"
     inkscape:cy="150550"
     inkscape:window-width="1920"
     inkscape:window-height="1027"
     inkscape:window-x="1912"
     inkscape:window-y="-8"
     inkscape:window-maximized="1"
     inkscape:current-layer="svg4" />
  <path
     d="M119066 107135h65865v33765l952 2c9173-16456 31602-33765 65046-33765 69550-2 82413 43280 82413 99584v114694l-68689 2V219745c0-24237-504-55437-35716-55437-35765 0-41245 26383-41245 53672v103438h-68626V107137zM71447 47613c0 19716-16000 35715-35716 35715S9 67328 9 47613c0-19716 16006-35716 35722-35716s35716 16000 35716 35716zM9 107135h71438v214281H9V107135z"
     fill="#0077b5"
     id="path2"
     style="fill:#ffffff;fill-opacity:1" />
</svg>
